Coordinates
version=1
nRows=13
nColumns=36
inDegrees=yes

Units are S.I. units (second, meters, Newtons, ...)
If the header above contains a line with 'inDegrees', this indicates whether rotational values are in degrees (yes) or radians (no).

endheader
time	pelvis_tilt	pelvis_list	pelvis_rotation	pelvis_tx	pelvis_ty	pelvis_tz	hip_flexion_r	hip_adduction_r	hip_rotation_r	knee_angle_r	knee_angle_r_beta	ankle_angle_r	subtalar_angle_r	mtp_angle_r	hip_flexion_l	hip_adduction_l	hip_rotation_l	knee_angle_l	knee_angle_l_beta	ankle_angle_l	subtalar_angle_l	mtp_angle_l	lumbar_extension	lumbar_bending	lumbar_rotation	arm_flex_r	arm_add_r	arm_rot_r	elbow_flex_r	pro_sup_r	arm_flex_l	arm_add_l	arm_rot_l	elbow_flex_l	pro_sup_l
      5.26666670	    -54.86979614	     22.62388999	      2.16951844	      0.88178724	      0.68201464	      0.06053566	    104.67737717	     -0.49183476	      6.49431406	     76.44381793	      1.33419632	     29.22684350	     10.08322322	     -7.49999987	     74.98958156	     29.77319876	     39.96515765	     93.32520588	      1.62883212	    -49.89598383	    -14.19602246	     -7.49999987	    -22.41351100	    -21.48878086	     -1.10631494	     86.03917763	    -11.94474189	     76.25003308	    137.69299508	    101.44636540	     93.01557381	      6.88130005	     62.87263757	    118.58378350	     92.57290091
      5.28333330	    -54.30367498	     19.52360520	      3.30266622	      0.88012371	      0.69140297	      0.05396717	    102.12341899	     -2.12770177	      4.00471375	     74.04081987	      1.29225609	     27.80079354	      8.82283587	     -7.49999987	     73.23175972	     29.61575863	     39.95632796	     90.54760443	      1.58035383	    -49.71195414	     12.87042781	     -7.49999987	    -23.33721832	    -17.31302509	     -1.01412427	     86.83273679	    -13.31509834	     76.58446428	    138.45006851	    101.25877195	     92.83375494	      7.80204191	     62.65162346	    117.62443636	     93.41295630
      5.30000000	    -53.83132985	     15.97217368	      5.23538877	      0.88422434	      0.69578077	      0.05085036	     99.52701085	     -4.17744824	      0.90017046	     71.52548685	      1.24835524	     26.69737079	      7.54023894	     -7.49999987	     71.65411709	     28.42568569	     39.94266630	     87.42995025	      1.52594050	    -48.88015066	     34.60961226	     -7.49999987	    -23.97663558	    -12.67305075	     -0.94968175	     87.30710842	    -14.79730251	     76.79574756	    139.25205527	    101.66732703	     92.46601723	      8.90130728	     62.61921101	    116.62785037	     94.74279641
      5.31666670	    -52.39510529	     13.48571240	      4.68335024	      0.88753528	      0.70378201	      0.04783829	     96.17303761	     -4.34468237	     -2.12624326	     69.23822267	      1.20843495	     25.91194200	      8.09599148	     -7.49999987	     69.12265772	     26.49184189	     39.92052571	     86.54023855	      1.51041210	    -47.33408552	     34.87918849	     -7.49999987	    -25.56314388	     -9.60124281	      0.78777841	     88.34629160	    -16.24667198	     77.52920486	    140.03547103	    101.53853576	     92.21121139	      9.93115889	     62.57113648	    115.86656677	     95.72637204
      5.33333330	    -51.68778599	      7.90183322	      6.67981731	      0.88386094	      0.70775301	      0.04624406	     93.48358996	     -5.95065140	     -8.04676320	     66.67926097	      1.16377265	     25.42068901	      8.14122230	     -7.49999987	     66.61437506	     23.20350143	     39.83362000	     84.20522431	      1.46965841	    -49.67011564	     34.89730298	     -7.49999987	    -26.17219673	     -2.16997934	      1.64701159	     90.39610632	    -16.66207267	     78.54385179	    140.12921759	    100.23772988	     92.01680794	     10.15833411	     61.63090150	    116.04478590	     96.51709782
      5.35000000	    -49.80567798	      0.94507526	      7.20160427	      0.89101352	      0.71764073	      0.04174926	     89.21381112	     -5.59791308	    -14.62408550	     63.78755599	      1.11330287	     26.51630928	      7.02513074	     -7.49999987	     62.83281890	     14.43137698	     35.23441208	     81.68547095	      1.42568042	    -49.86345977	     34.77467552	     -7.49999987	    -27.64133174	      6.89736487	      4.05925584	     93.09074499	    -16.18222725	     79.97975186	    139.39276929	     98.05358811	     91.27846657	      9.50855787	     60.10956429	    117.05310736	     97.93514231
      5.36666670	    -45.35122600	     -1.94311713	      7.11018301	      0.88962426	      0.71906362	      0.04146994	     87.68201963	     -0.15034381	     -9.80094608	     66.26473271	      1.15653776	     27.46909538	     -5.21545587	     -7.49999987	     55.46394045	      1.83692151	     19.27767250	     79.32643024	      1.38450739	    -49.86143922	     19.65657797	     -7.49999987	    -32.51659995	     10.42390228	      5.29976648	     95.83109466	    -15.29704904	     79.46032675	    139.24727325	     94.03846703	     93.33106223	      9.18697099	     58.99734400	    117.69453389	     94.33247449
      5.38333330	    -41.35198280	     -3.44436658	      6.67101318	      0.89528801	      0.72494066	      0.04038703	     85.49952140	      4.68583900	     -5.32639437	     68.33904095	      1.19274127	     26.92468042	    -15.76568633	     -7.49999987	     44.34653266	     -5.00236141	      9.20161635	     74.28484348	      1.29651510	    -49.51375927	      0.36048872	     -7.49999987	    -36.85448748	     12.54020259	      6.48350773	     97.81348100	    -14.67389405	     79.39902120	    138.83741316	     93.66269562	     94.26924448	      8.65031304	     57.67489486	    118.31807597	     96.84237847
      5.40000000	    -38.29059048	     -4.35056800	      7.32697825	      0.90146865	      0.72617502	      0.03315359	     83.57692475	      6.80134613	     -2.85774498	     70.39043761	      1.22854490	     27.63701169	    -21.40321491	     -7.49999987	     37.20034219	     -6.91284966	      5.28835317	     72.88186446	      1.27202850	    -41.93406228	     -8.83068096	     -7.49999987	    -39.53632533	     14.38308108	      6.61135138	     98.99246414	    -14.67086803	     79.65559650	    139.16039702	     92.41103437	     94.51955546	      8.71681431	     57.18670168	    118.47975826	     96.49910014
      5.41666670	    -36.57752162	     -4.60893322	      8.40183022	      0.90172159	      0.72559125	      0.03301534	     82.69511872	      7.58597971	     -1.63441147	     71.94156768	      1.25561722	     27.89236110	    -24.13775481	     -7.49999987	     34.26025065	     -7.48597018	      3.84481331	     73.04980596	      1.27495963	    -32.67789911	    -11.65589571	     -7.49999987	    -40.36634542	     15.46507375	      5.96237986	     99.17056134	    -14.43388558	     79.51874104	    139.36418834	     92.07660755	     94.50429547	      8.71650409	     56.91300465	    118.72560418	     96.13976498
      5.43333330	    -35.77678396	     -5.03354136	      8.89578686	      0.90183388	      0.73172298	      0.03260212	     81.41184234	      7.97848979	     -1.70545018	     71.38249868	      1.24585963	     27.44533862	    -24.81922490	     -7.49999987	     33.61093530	     -8.06069279	      3.62791260	     73.44309293	      1.28182378	    -26.56104867	    -12.19834413	     -7.49999987	    -40.43848961	     16.19313919	      5.88160184	     99.24023377	    -14.56373675	     79.50651863	    139.75363362	     91.91991204	     94.60092254	      9.08079504	     56.70130269	    118.91565531	     96.00822852
      5.45000000	    -35.30975142	     -4.86408657	      9.31024808	      0.90329877	      0.73347375	      0.03183448	     80.23243420	      7.80127977	     -1.66141866	     70.77639007	      1.23528104	     27.08150615	    -24.87100022	     -7.49999987	     33.42281774	     -7.91568044	      3.75761496	     73.82830115	      1.28854694	    -23.07781058	    -12.16859433	     -7.49999987	    -40.06513696	     16.22194360	      5.60382764	    101.45830202	    -14.74871138	     80.92336509	    139.82013158	     90.32601298	     94.40326448	      9.07590926	     56.64139560	    118.88274043	     94.60085458
      5.46666670	    -35.00605746	     -4.38094447	      9.21042290	      0.90973263	      0.73532060	      0.03102214	     78.78448961	      7.69150803	     -1.49429432	     70.07268957	      1.22299915	     27.18242118	    -24.30390683	     -7.49999987	     32.82163943	     -7.60543342	      3.75373240	     73.77986630	      1.28770159	    -21.48221028	    -11.54194881	     -7.49999987	    -39.02794281	     15.68708299	      4.96583713	    101.77297866	    -14.78461538	     82.44987419	    139.70058172	     90.25081794	     93.15693332	      8.84164181	     57.04904038	    118.78114921	     94.69857827
